# xmcd
#
# Track frame offsets:
#	150
#	16762
#	32342
#	49701
#	71029
#	84941
#	102176
#	117128
#	135365
#	151804
#	165191
#	179816
#	194532
#
# Disc length: 2820 seconds
#
# Revision: 0
# Processed by: cddbd v1.5.2PL0 Copyright (c) Steve Scherf et al.
# Submitted via: audiograbber 1.83.01
#
DISCID=960b020d
DTITLE=Various Artist - CDX 650
DYEAR=2017
DGENRE=Country
TTITLE0=Shania Twain - Life's About To Get Good
TTITLE1=Dierks Bentley - What The Hell Did I Say
TTITLE2=Little Big Town - When Someone Stops Loving You
TTITLE3=Nitty Gritty GR - 3 Up 1 Down
TTITLE4=Shane Owens - 19
TTITLE5=Night Owl Band - Cool Gentle Wind
TTITLE6=Candy Fernaux - Gone' Fishin'
TTITLE7=Jeff Lewis and Norm Cady - Land of Dreams
TTITLE8=Cody Jinks - No Words
TTITLE9=Dustin Collins - Peices
TTITLE10=Jagertown - Small Town Superstars
TTITLE11=Rusty Pierson - Upon This Rock
TTITLE12=Mary Sarah - Without You
EXTD=
EXTT0=
EXTT1=
EXTT2=
EXTT3=
EXTT4=
EXTT5=
EXTT6=
EXTT7=
EXTT8=
EXTT9=
EXTT10=
EXTT11=
EXTT12=
PLAYORDER=
